<mxfile host="app.diagrams.net" modified="2023-05-20T03:24:18.181Z" agent="Mozilla/5.0 (Macintosh; Intel Mac OS X 10_15_7) AppleWebKit/537.36 (KHTML, like Gecko) Chrome/113.0.0.0 Safari/537.36" version="21.1.5" etag="GVg_T6OtwnGj53Vtffqs" type="github">
  <diagram name="페이지-1" id="pboS7UbV6jR2kaC6CUAn">
    <mxGraphModel>
      <root>
        <mxCell id="0" />
        <mxCell id="1" parent="0" />
      </root>
    </mxGraphModel>
  </diagram>
</mxfile>
